<svg xmlns="http://www.w3.org/2000/svg" xmlns:xlink="http://www.w3.org/1999/xlink" width="100" zoomAndPan="magnify" viewBox="0 0 75 74.999997" height="100" preserveAspectRatio="xMidYMid meet" version="1.0"><defs><g/></defs><rect x="-7.5" width="90" fill="#ffffff" y="-7.5" height="89.999996" fill-opacity="1"/><rect x="-7.5" width="90" fill="#000000" y="-7.5" height="89.999996" fill-opacity="1"/><g fill="#ffffff" fill-opacity="1"><g transform="translate(35.369439, 37.316046)"><g><path d="M 0.203125 -3.25 C 0.203125 -3.425781 0.210938 -3.566406 0.234375 -3.671875 C 0.265625 -3.785156 0.316406 -3.875 0.390625 -3.9375 C 0.453125 -3.988281 0.550781 -4.023438 0.6875 -4.046875 C 0.820312 -4.066406 1.023438 -4.078125 1.296875 -4.078125 L 1.75 -4.078125 C 2.019531 -4.078125 2.222656 -4.066406 2.359375 -4.046875 C 2.492188 -4.023438 2.59375 -3.988281 2.65625 -3.9375 C 2.71875 -3.875 2.765625 -3.785156 2.796875 -3.671875 C 2.828125 -3.566406 2.84375 -3.425781 2.84375 -3.25 L 2.84375 0 L 1.75 0 L 1.75 -0.859375 L 1.296875 -0.859375 L 1.296875 0 L 0.203125 0 Z M 1.75 -1.765625 L 1.75 -2.84375 C 1.75 -3.101562 1.671875 -3.234375 1.515625 -3.234375 C 1.367188 -3.234375 1.296875 -3.101562 1.296875 -2.84375 L 1.296875 -1.765625 Z M 1.75 -1.765625 "/></g></g></g><g fill="#2563eb" fill-opacity="1"><g transform="translate(37.300586, 37.449815)"><g><path d="M 0.671875 -4.3125 L 0 -4.3125 L 0 -5.5 L 2.8125 -5.5 L 2.8125 -4.3125 L 2.140625 -4.3125 L 2.140625 0 L 0.671875 0 Z M 0.671875 -4.3125 "/></g></g></g></svg>