<svg xmlns="http://www.w3.org/2000/svg" xmlns:xlink="http://www.w3.org/1999/xlink" width="100" zoomAndPan="magnify" viewBox="0 0 75 74.999997" height="100" preserveAspectRatio="xMidYMid meet" version="1.0"><defs><g/></defs><rect x="-7.5" width="90" fill="#ffffff" y="-7.5" height="89.999996" fill-opacity="1"/><rect x="-7.5" width="90" fill="#000000" y="-7.5" height="89.999996" fill-opacity="1"/><g fill="#ffffff" fill-opacity="1"><g transform="translate(14.842969, 58.39999)"><g><path d="M 2.171875 -36.109375 C 2.171875 -38.097656 2.34375 -39.691406 2.6875 -40.890625 C 3.03125 -42.097656 3.5625 -43.019531 4.28125 -43.65625 C 5.007812 -44.289062 6.128906 -44.734375 7.640625 -44.984375 C 9.160156 -45.234375 11.421875 -45.359375 14.421875 -45.359375 L 19.375 -45.359375 C 22.375 -45.359375 24.628906 -45.234375 26.140625 -44.984375 C 27.660156 -44.734375 28.785156 -44.289062 29.515625 -43.65625 C 30.234375 -43.019531 30.765625 -42.097656 31.109375 -40.890625 C 31.453125 -39.691406 31.625 -38.097656 31.625 -36.109375 L 31.625 0 L 19.453125 0 L 19.453125 -9.59375 L 14.34375 -9.59375 L 14.34375 0 L 2.171875 0 Z M 19.453125 -19.65625 L 19.453125 -31.625 C 19.453125 -34.4375 18.585938 -35.84375 16.859375 -35.84375 C 15.179688 -35.84375 14.34375 -34.4375 14.34375 -31.625 L 14.34375 -19.65625 Z M 19.453125 -19.65625 "/></g></g></g><g fill="#2563eb" fill-opacity="1"><g transform="translate(34.894701, 59.249995)"><g><path d="M 5.828125 -37.578125 L 0 -37.578125 L 0 -48.03125 L 24.546875 -48.03125 L 24.546875 -37.578125 L 18.71875 -37.578125 L 18.71875 0 L 5.828125 0 Z M 5.828125 -37.578125 "/></g></g></g></svg>